<svg xmlns="http://www.w3.org/2000/svg" viewBox="0 0 1400 900" role="img" aria-label="Mesa elegante preparada para evento">
  <defs>
    <linearGradient id="bg" x1="0" x2="1" y1="0" y2="1">
      <stop offset="0" stop-color="#3f7d72"/>
      <stop offset="0.48" stop-color="#d49b7f"/>
      <stop offset="1" stop-color="#f7f3ee"/>
    </linearGradient>
    <filter id="soft" x="-20%" y="-20%" width="140%" height="140%">
      <feGaussianBlur stdDeviation="18"/>
    </filter>
  </defs>
  <rect width="1400" height="900" fill="url(#bg)"/>
  <circle cx="1120" cy="160" r="230" fill="#fff6e8" opacity=".45" filter="url(#soft)"/>
  <circle cx="170" cy="710" r="300" fill="#234440" opacity=".35" filter="url(#soft)"/>
  <rect x="120" y="520" width="1160" height="210" rx="34" fill="#fffdf9" opacity=".9"/>
  <rect x="190" y="575" width="260" height="36" rx="18" fill="#e8dfd4"/>
  <rect x="500" y="575" width="260" height="36" rx="18" fill="#e8dfd4"/>
  <rect x="810" y="575" width="260" height="36" rx="18" fill="#e8dfd4"/>
  <circle cx="320" cy="650" r="52" fill="#3f7d72"/>
  <circle cx="630" cy="650" r="52" fill="#c4765c"/>
  <circle cx="940" cy="650" r="52" fill="#26302f"/>
  <path d="M270 360c70-80 160-80 230 0 70 80 160 80 230 0 70-80 160-80 230 0" fill="none" stroke="#fffdf9" stroke-width="18" stroke-linecap="round" opacity=".75"/>
</svg>
